<?xml version="1.0" encoding="UTF-8" standalone="no"?>
<!-- Created with Inkscape (http://www.inkscape.org/) -->

<svg
   width="272mm"
   height="272mm"
   viewBox="0 0 272 272"
   version="1.1"
   id="svg5"
   inkscape:version="1.1 (c68e22c387, 2021-05-23)"
   sodipodi:docname="adaptive-icon.svg"
   inkscape:export-filename="C:\Users\ronny\Desktop\VSCODE EXTENCIONES\splash.png"
   inkscape:export-xdpi="942.62201"
   inkscape:export-ydpi="942.62201"
   xmlns:inkscape="http://www.inkscape.org/namespaces/inkscape"
   xmlns:sodipodi="http://sodipodi.sourceforge.net/DTD/sodipodi-0.dtd"
   xmlns="http://www.w3.org/2000/svg"
   xmlns:svg="http://www.w3.org/2000/svg">
  <sodipodi:namedview
     id="namedview7"
     pagecolor="#ffffff"
     bordercolor="#999999"
     borderopacity="1"
     inkscape:pageshadow="0"
     inkscape:pageopacity="0"
     inkscape:pagecheckerboard="0"
     inkscape:document-units="mm"
     showgrid="false"
     inkscape:zoom="0.14520903"
     inkscape:cx="1077.7567"
     inkscape:cy="671.44585"
     inkscape:window-width="1600"
     inkscape:window-height="837"
     inkscape:window-x="-8"
     inkscape:window-y="-8"
     inkscape:window-maximized="1"
     inkscape:current-layer="layer4" />
  <defs
     id="defs2" />
  <g
     inkscape:groupmode="layer"
     id="layer4"
     inkscape:label="Capa 4"
     style="display:inline" />
  <g
     inkscape:label="Capa 1"
     inkscape:groupmode="layer"
     id="layer1"
     style="display:inline">
    <path
       style="display:inline;fill:#000000;stroke:none;stroke-width:0.206451px;stroke-linecap:butt;stroke-linejoin:miter;stroke-opacity:1"
       d="m 80.393434,95.919035 c 0,0 -1.884993,-15.079988 13.948989,-14.828657 15.833987,0.251339 95.369867,-0.02926 95.369867,-0.02926 0,0 11.72948,0.177719 11.9072,12.440346 0.17772,12.262646 -0.17772,95.435306 -0.17772,95.435306 0,0 3.7321,13.86209 -15.63931,13.50666 -19.37141,-0.35544 -91.525464,0.35543 -91.525464,0.35543 0,0 -13.506667,1.59949 -13.862104,-11.37401 -0.355446,-12.97353 -0.02146,-95.505799 -0.02146,-95.505799 z"
       id="path5893-0" />
  </g>
  <g
     inkscape:groupmode="layer"
     id="layer5"
     inkscape:label="Capa 5"
     style="display:inline">
    <path
       style="fill:#333333;stroke:none;stroke-width:0.206451px;stroke-linecap:butt;stroke-linejoin:miter;stroke-opacity:1"
       d="m 72.451922,89.927416 c 0,0 -1.884999,-15.079987 13.948986,-14.828656 15.833992,0.251339 95.369872,-0.02926 95.369872,-0.02926 0,0 11.72948,0.177719 11.90719,12.440346 0.17772,12.26265 -0.17771,95.435304 -0.17771,95.435304 0,0 3.7321,13.8621 -15.63931,13.50667 -19.37141,-0.35545 -91.52547,0.35543 -91.52547,0.35543 0,0 -13.506666,1.59948 -13.862105,-11.37402 -0.35544,-12.97353 -0.02145,-95.505797 -0.02145,-95.505797 z"
       id="path5893" />
  </g>
  <g
     inkscape:groupmode="layer"
     id="layer6"
     inkscape:label="Capa 6"
     style="display:inline">
    <rect
       style="fill:#cccccc;fill-opacity:1;stroke-width:0.330322;stroke-linecap:round;stroke-linejoin:round;paint-order:markers fill stroke"
       id="rect5951"
       width="4.7984228"
       height="26.302464"
       x="100.37531"
       y="92.48597" />
    <rect
       style="fill:#cccccc;fill-opacity:1;stroke-width:0.330322;stroke-linecap:round;stroke-linejoin:round;paint-order:markers fill stroke"
       id="rect5951-7"
       width="4.7984228"
       height="26.302464"
       x="-107.32455"
       y="89.628326"
       transform="rotate(-89.900287)" />
    <rect
       style="display:inline;fill:#cccccc;fill-opacity:1;stroke-width:0.330322;stroke-linecap:round;stroke-linejoin:round;paint-order:markers fill stroke"
       id="rect5951-7-2"
       width="4.7984228"
       height="26.302464"
       x="-107.39542"
       y="151.03058"
       transform="rotate(-89.900287)" />
    <rect
       style="display:inline;fill:#cccccc;fill-opacity:1;stroke-width:0.330322;stroke-linecap:round;stroke-linejoin:round;paint-order:markers fill stroke"
       id="rect5951-1"
       width="4.7984228"
       height="26.302464"
       x="-50.3657"
       y="177.41046"
       transform="rotate(-45.735716)" />
    <rect
       style="display:inline;fill:#cccccc;fill-opacity:1;stroke-width:0.330322;stroke-linecap:round;stroke-linejoin:round;paint-order:markers fill stroke"
       id="rect5951-7-1"
       width="4.7984228"
       height="26.302464"
       x="-192.51123"
       y="-60.964664"
       transform="rotate(-135.636)" />
    <rect
       style="display:inline;fill:#00ff00;fill-opacity:1;stroke-width:0.330322;stroke-linecap:round;stroke-linejoin:round;paint-order:markers fill stroke"
       id="rect5951-7-2-6"
       width="4.7984228"
       height="26.302464"
       x="-163.19922"
       y="151.1277"
       transform="rotate(-89.900287)" />
    <rect
       style="display:inline;fill:#00ff00;fill-opacity:1;stroke-width:0.330322;stroke-linecap:round;stroke-linejoin:round;paint-order:markers fill stroke"
       id="rect5951-7-2-4"
       width="4.7984228"
       height="26.302464"
       x="-174.92897"
       y="150.9704"
       transform="rotate(-89.900287)" />
    <rect
       style="display:inline;fill:#cccccc;fill-opacity:1;stroke-width:0.195255;stroke-linecap:round;stroke-linejoin:round;paint-order:markers fill stroke"
       id="rect6387"
       width="1.429153"
       height="121.03259"
       x="133.78285"
       y="75.303894" />
    <rect
       style="display:inline;fill:#cccccc;fill-opacity:1;stroke-width:0.195335;stroke-linecap:round;stroke-linejoin:round;paint-order:markers fill stroke"
       id="rect6387-7"
       width="1.429153"
       height="121.13103"
       x="-137.06294"
       y="72.439507"
       transform="rotate(-89.996)" />
  </g>
</svg>
