<?xml version="1.0" encoding="UTF-8" standalone="no"?>
<!-- Created with Inkscape (http://www.inkscape.org/) -->

<svg
   width="272mm"
   height="272mm"
   viewBox="0 0 272 272"
   version="1.1"
   id="svg5"
   inkscape:version="1.1 (c68e22c387, 2021-05-23)"
   sodipodi:docname="icon.svg"
   inkscape:export-filename="C:\Users\ronny\Desktop\VSCODE EXTENCIONES\splash.png"
   inkscape:export-xdpi="942.62201"
   inkscape:export-ydpi="942.62201"
   xmlns:inkscape="http://www.inkscape.org/namespaces/inkscape"
   xmlns:sodipodi="http://sodipodi.sourceforge.net/DTD/sodipodi-0.dtd"
   xmlns="http://www.w3.org/2000/svg"
   xmlns:svg="http://www.w3.org/2000/svg">
  <sodipodi:namedview
     id="namedview7"
     pagecolor="#ffffff"
     bordercolor="#999999"
     borderopacity="1"
     inkscape:pageshadow="0"
     inkscape:pageopacity="0"
     inkscape:pagecheckerboard="0"
     inkscape:document-units="mm"
     showgrid="false"
     inkscape:zoom="0.14520903"
     inkscape:cx="1077.7566"
     inkscape:cy="671.44582"
     inkscape:window-width="1600"
     inkscape:window-height="837"
     inkscape:window-x="-8"
     inkscape:window-y="-8"
     inkscape:window-maximized="1"
     inkscape:current-layer="layer4" />
  <defs
     id="defs2" />
  <g
     inkscape:groupmode="layer"
     id="layer4"
     inkscape:label="Capa 4"
     style="display:inline" />
  <g
     inkscape:label="Capa 1"
     inkscape:groupmode="layer"
     id="layer1"
     style="display:inline">
    <path
       style="display:inline;fill:#000000;stroke:none;stroke-width:0.264583px;stroke-linecap:butt;stroke-linejoin:miter;stroke-opacity:1"
       d="m 64.448771,79.924718 c 0,0 -2.41576,-19.32614 17.87668,-19.00404 20.292449,0.32211 122.223669,-0.0375 122.223669,-0.0375 0,0 15.03221,0.22776 15.25997,15.94324 0.22776,15.71551 -0.22776,122.307532 -0.22776,122.307532 0,0 4.78297,17.76532 -20.04295,17.30981 -24.82592,-0.45553 -117.296779,0.45551 -117.296779,0.45551 0,0 -17.30981,2.04986 -17.76533,-14.57666 -0.45553,-16.62655 -0.0275,-122.397872 -0.0275,-122.397872 z"
       id="path5893-0" />
  </g>
  <g
     inkscape:groupmode="layer"
     id="layer5"
     inkscape:label="Capa 5"
     style="display:inline">
    <path
       style="fill:#333333;stroke:none;stroke-width:0.264583px;stroke-linecap:butt;stroke-linejoin:miter;stroke-opacity:1"
       d="m 54.271126,72.246008 c 0,0 -2.415768,-19.32614 17.876675,-19.00404 20.292454,0.32211 122.223669,-0.0375 122.223669,-0.0375 0,0 15.03221,0.22776 15.25997,15.94324 0.22776,15.71551 -0.22776,122.307532 -0.22776,122.307532 0,0 4.78297,17.76532 -20.04295,17.30981 -24.82592,-0.45553 -117.296779,0.45551 -117.296779,0.45551 0,0 -17.30981,2.04986 -17.765332,-14.57666 -0.455523,-16.62655 -0.02749,-122.397872 -0.02749,-122.397872 z"
       id="path5893" />
  </g>
  <g
     inkscape:groupmode="layer"
     id="layer6"
     inkscape:label="Capa 6"
     style="display:inline">
    <rect
       style="fill:#cccccc;fill-opacity:1;stroke-width:0.423333;stroke-linecap:round;stroke-linejoin:round;paint-order:markers fill stroke"
       id="rect5951"
       width="6.1495399"
       height="33.708588"
       x="90.057053"
       y="75.524986" />
    <rect
       style="fill:#cccccc;fill-opacity:1;stroke-width:0.423333;stroke-linecap:round;stroke-linejoin:round;paint-order:markers fill stroke"
       id="rect5951-7"
       width="6.1495399"
       height="33.708588"
       x="-94.608948"
       y="76.209206"
       transform="rotate(-89.900287)" />
    <rect
       style="display:inline;fill:#cccccc;fill-opacity:1;stroke-width:0.423333;stroke-linecap:round;stroke-linejoin:round;paint-order:markers fill stroke"
       id="rect5951-7-2"
       width="6.1495399"
       height="33.708588"
       x="-94.699768"
       y="154.90082"
       transform="rotate(-89.900287)" />
    <rect
       style="display:inline;fill:#cccccc;fill-opacity:1;stroke-width:0.423333;stroke-linecap:round;stroke-linejoin:round;paint-order:markers fill stroke"
       id="rect5951-1"
       width="6.1495399"
       height="33.708588"
       x="-60.680641"
       y="169.72101"
       transform="rotate(-45.735716)" />
    <rect
       style="display:inline;fill:#cccccc;fill-opacity:1;stroke-width:0.423333;stroke-linecap:round;stroke-linejoin:round;paint-order:markers fill stroke"
       id="rect5951-7-1"
       width="6.1495399"
       height="33.708588"
       x="-189.06714"
       y="-74.364334"
       transform="rotate(-135.636)" />
    <rect
       style="display:inline;fill:#00ff00;fill-opacity:1;stroke-width:0.423333;stroke-linecap:round;stroke-linejoin:round;paint-order:markers fill stroke"
       id="rect5951-7-2-6"
       width="6.1495399"
       height="33.708588"
       x="-166.21655"
       y="155.02528"
       transform="rotate(-89.900287)" />
    <rect
       style="display:inline;fill:#00ff00;fill-opacity:1;stroke-width:0.423333;stroke-linecap:round;stroke-linejoin:round;paint-order:markers fill stroke"
       id="rect5951-7-2-4"
       width="6.1495399"
       height="33.708588"
       x="-181.24911"
       y="154.82368"
       transform="rotate(-89.900287)" />
    <rect
       style="display:inline;fill:#cccccc;fill-opacity:1;stroke-width:0.250234;stroke-linecap:round;stroke-linejoin:round;paint-order:markers fill stroke"
       id="rect6387"
       width="1.8315672"
       height="155.11238"
       x="132.87134"
       y="53.504868" />
    <rect
       style="display:inline;fill:#cccccc;fill-opacity:1;stroke-width:0.250336;stroke-linecap:round;stroke-linejoin:round;paint-order:markers fill stroke"
       id="rect6387-7"
       width="1.8315672"
       height="155.23854"
       x="-132.65643"
       y="54.252213"
       transform="rotate(-89.996)" />
  </g>
</svg>
